PathFileType	4	(X/Y/Z)	C:/Users/opensim2020/Desktop/walking_exp_matlab/subject03_walking09_straight_03.trc	
DataRate	CameraRate	NumFrames	NumMarkers	Units	OrigDataRate	OrigDataStartFrame	OrigNumFrames	
100.00	100.00	8	47	mm	100.00	2796	383	
Frame#	Time	LFHD			RFHD			LBHD			RBHD			C7			T10			CLAV			STRN			RBAK			LSHO			LUPA			LELB			LFRM			LWRA			LWRB			LFIN			RSHO			RUPA			RELB			RFRM			RWRA			RWRB			RFIN			LASI			RASI			LPSI			RPSI			LTHI			LKNE			LTIB			LANK			LHEE			LTOE			RTHI			RKNE			RTIB			RANK			RHEE			RTOE			*39			*40			*41			*42			*43			*44			*45			*46			
		X1	Y1	Z1	X2	Y2	Z2	X3	Y3	Z3	X4	Y4	Z4	X5	Y5	Z5	X6	Y6	Z6	X7	Y7	Z7	X8	Y8	Z8	X9	Y9	Z9	X10	Y10	Z10	X11	Y11	Z11	X12	Y12	Z12	X13	Y13	Z13	X14	Y14	Z14	X15	Y15	Z15	X16	Y16	Z16	X17	Y17	Z17	X18	Y18	Z18	X19	Y19	Z19	X20	Y20	Z20	X21	Y21	Z21	X22	Y22	Z22	X23	Y23	Z23	X24	Y24	Z24	X25	Y25	Z25	X26	Y26	Z26	X27	Y27	Z27	X28	Y28	Z28	X29	Y29	Z29	X30	Y30	Z30	X31	Y31	Z31	X32	Y32	Z32	X33	Y33	Z33	X34	Y34	Z34	X35	Y35	Z35	X36	Y36	Z36	X37	Y37	Z37	X38	Y38	Z38	X39	Y39	Z39	X40	Y40	Z40	X41	Y41	Z41	X42	Y42	Z42	X43	Y43	Z43	X44	Y44	Z44	X45	Y45	Z45	X46	Y46	Z46	X47	Y47	Z47	

1	0.000	-1072.20313	-1032.49976	1622.62537	-940.79059	-1054.63660	1627.63770	-1087.23767	-1154.04761	1565.76099	-957.17072	-1171.87476	1570.73254	-1024.93018	-1186.82642	1416.49426	-1019.85089	-1229.43164	1105.82666	-1015.82581	-1066.25366	1337.04016	-1017.60138	-1027.35559	1170.63171	-926.88983	-1247.17554	1245.52917	-1174.03162	-1099.06470	1373.14697	-1250.46143	-1099.05225	1178.24133	-1265.57935	-1081.92981	1057.38403	-1260.50635	-1039.80029	933.88171	-1227.07275	-1008.58582	820.32837	-1279.96570	-1025.95300	822.18481	-1269.60486	-996.16394	744.34344	-859.24030	-1116.28552	1362.99133	-782.96210	-1094.86206	1142.66492	-768.76233	-1065.78174	1033.84692	-764.61407	-1034.70972	900.54877	-800.04932	-998.38037	807.63342	-752.66278	-1023.66980	801.40521	-762.69153	-994.37811	733.21716	-1130.28613	-1067.92224	932.57471	-892.79980	-1066.89063	940.22345	-1083.43018	-1230.19226	958.26697	-934.23413	-1226.90222	975.28467	-1180.53491	-1078.44507	631.81140	-1159.49402	-1041.32104	455.10471	-1162.04883	-1176.42798	313.75262	-1126.59167	-1309.52112	151.11697	-1089.31348	-1364.09888	142.52394	-1100.42896	-1208.53650	46.04265	-855.43372	-1122.50427	648.08173	-892.36664	-1109.41846	467.86954	-888.86145	-1157.59717	282.53876	-937.32806	-1194.48157	68.84646	-985.53937	-1240.82727	37.05716	-955.18384	-1053.38171	31.57298																								 
2	0.010	-1071.99585	-1025.81494	1622.41797	-940.53009	-1047.33984	1627.53101	-1086.59814	-1147.82593	1566.47180	-956.44171	-1164.93359	1571.30676	-1024.09814	-1180.83606	1416.55981	-1018.68463	-1223.50500	1105.92297	-1015.44824	-1060.44202	1337.09595	-1017.50549	-1021.52710	1170.78003	-925.54871	-1240.64148	1245.73328	-1173.61707	-1094.21594	1373.46899	-1250.28418	-1095.84631	1178.55103	-1265.85535	-1079.68921	1057.77454	-1261.21814	-1037.15186	934.42450	-1228.30554	-1004.93408	820.86273	-1280.40710	-1023.38000	822.66449	-1270.59314	-992.69360	745.12659	-858.81964	-1109.61133	1363.36206	-782.48639	-1086.37073	1143.33679	-768.42993	-1055.89221	1034.90625	-764.23541	-1023.37567	901.96991	-799.79907	-986.06311	809.45599	-752.22601	-1011.14758	803.01550	-762.18658	-981.13214	735.02869	-1129.32813	-1062.42957	932.96411	-892.47168	-1060.77087	939.99457	-1083.11462	-1224.16040	958.63342	-933.72406	-1220.78503	975.32727	-1179.76416	-1068.82458	633.15717	-1158.02405	-1028.77722	457.16910	-1160.59766	-1160.29883	312.05695	-1125.18994	-1289.11023	146.01570	-1088.31409	-1343.80579	135.58653	-1098.29297	-1184.79565	44.90963	-855.32477	-1117.62549	647.63031	-892.40283	-1105.46875	467.45813	-888.89703	-1155.19055	282.47144	-937.38379	-1194.07495	69.02500	-985.32941	-1240.76953	37.51753	-955.22064	-1053.30933	31.56583																								 
3	0.020	-1071.72974	-1019.10748	1622.19458	-940.23169	-1040.15112	1627.30078	-1086.01978	-1141.56946	1567.21240	-955.79565	-1158.17432	1571.98206	-1023.27295	-1174.86426	1416.67969	-1017.61432	-1217.50598	1106.03516	-1015.42798	-1054.32056	1337.30444	-1017.67816	-1015.53595	1170.90271	-924.24261	-1234.10986	1245.87598	-1173.38940	-1089.30542	1373.78552	-1250.04285	-1092.46887	1178.82715	-1265.84863	-1077.39429	1057.96985	-1261.81995	-1034.40125	934.85052	-1229.20081	-1000.84253	821.59998	-1280.77722	-1020.71600	823.00299	-1271.35559	-989.36627	745.69531	-858.44067	-1102.89746	1363.61755	-782.01550	-1078.06567	1143.92419	-767.97943	-1046.30408	1035.85144	-763.96252	-1012.19543	903.34259	-799.42664	-973.91711	811.00073	-751.97363	-998.82208	804.54968	-761.89343	-968.03558	736.87439	-1129.04211	-1056.19360	933.80560	-892.20233	-1054.62598	939.79517	-1082.73596	-1217.99731	958.85901	-933.23663	-1214.75903	975.37048	-1178.68640	-1059.07983	634.56464	-1155.76770	-1017.33569	458.44870	-1159.17627	-1144.27258	310.28772	-1124.07996	-1268.36035	140.59239	-1087.29199	-1322.84656	128.13748	-1096.28552	-1160.35291	43.76830	-855.28778	-1112.78381	647.21100	-892.46973	-1101.65405	467.03345	-889.00934	-1152.92480	282.40936	-937.20233	-1193.96680	69.44141	-985.16266	-1240.76074	37.98669	-955.23413	-1053.25366	31.53206																								 
4	0.030	-1071.60608	-1012.47498	1622.02380	-939.97675	-1032.99402	1627.06519	-1085.49548	-1135.31921	1567.87659	-955.15063	-1151.50562	1572.62708	-1022.56476	-1168.82080	1416.75928	-1016.53687	-1211.52954	1106.13770	-1015.36121	-1048.38062	1337.34741	-1017.82806	-1009.47400	1171.02332	-923.03552	-1227.54639	1245.99854	-1173.20801	-1084.32202	1373.93774	-1249.79492	-1088.98206	1178.92407	-1265.87561	-1074.90784	1058.13025	-1262.31384	-1031.58081	935.12775	-1229.90454	-996.85333	822.16504	-1280.97058	-1017.96729	823.18848	-1271.83899	-986.23431	746.01105	-858.19379	-1096.08276	1363.79980	-781.21576	-1069.95264	1144.47327	-767.51349	-1036.89038	1036.71069	-763.69720	-1001.18457	904.62640	-799.29126	-961.84448	812.89343	-751.87421	-986.63586	805.99945	-761.68939	-955.07251	738.72156	-1128.48303	-1050.19336	934.44745	-891.96161	-1048.53845	939.50470	-1082.41211	-1212.10876	959.13458	-932.78198	-1208.67419	975.30133	-1177.78271	-1049.37646	635.64099	-1154.51257	-1005.09235	461.05350	-1157.76282	-1128.35144	308.44302	-1122.77271	-1247.03809	134.85196	-1086.20337	-1301.29895	120.29375	-1094.44775	-1134.66589	43.07059	-855.31012	-1108.06177	646.77917	-892.49506	-1098.12927	466.63760	-889.12122	-1150.78577	282.33731	-937.31976	-1193.47791	69.54868	-985.16949	-1240.82373	38.56133	-955.26807	-1053.20923	31.51677																								 
5	0.040	-1071.53210	-1005.81671	1621.79932	-939.77417	-1025.84961	1626.76245	-1085.05444	-1129.02136	1568.45630	-954.68646	-1144.67297	1573.03882	-1021.93097	-1162.80127	1416.91663	-1015.57318	-1205.51135	1106.16846	-1015.54871	-1042.23132	1337.47742	-1017.76215	-1003.51532	1171.05164	-921.85498	-1221.00769	1246.12634	-1173.04968	-1079.34302	1373.98584	-1249.55505	-1085.34253	1178.96631	-1265.64771	-1072.23547	1057.88513	-1262.61597	-1028.69189	935.22406	-1230.47351	-992.82935	822.64667	-1281.01550	-1015.24493	823.19934	-1271.98145	-983.17615	746.02802	-857.89764	-1089.25244	1363.95886	-780.81641	-1061.81299	1144.90234	-767.02423	-1027.71777	1037.48193	-763.39594	-990.47345	905.78113	-799.32501	-949.99890	814.66748	-751.84680	-974.70648	807.35187	-761.70984	-942.22095	740.54657	-1127.99268	-1044.14819	935.02570	-891.43164	-1042.90894	939.07898	-1082.14929	-1206.20142	959.30298	-932.37164	-1202.67432	975.15155	-1177.78015	-1040.92712	637.04187	-1152.82959	-993.77606	462.97910	-1156.36853	-1112.53833	306.51981	-1121.35474	-1225.61169	129.18385	-1084.79138	-1279.39282	112.36221	-1092.90247	-1109.62048	41.61645	-855.37378	-1103.45239	646.33374	-892.55640	-1094.84644	466.21982	-889.32642	-1148.74048	282.23520	-937.17822	-1193.25464	69.84274	-984.69873	-1240.81262	39.26957	-955.29364	-1053.16272	31.52279																								 
6	0.050	-1071.45483	-999.15729	1621.63733	-939.66876	-1018.77930	1626.43396	-1084.64661	-1122.70630	1568.86304	-954.20013	-1138.05493	1573.45764	-1021.35370	-1156.69885	1416.84790	-1014.70874	-1199.44812	1106.14160	-1015.36407	-1036.38428	1337.24084	-1017.79877	-997.42706	1170.94507	-920.78168	-1214.41052	1246.22009	-1172.90784	-1074.30090	1373.93872	-1249.33997	-1081.43042	1178.88428	-1265.51660	-1069.17688	1057.69763	-1262.74194	-1025.71313	935.13220	-1230.78809	-989.03406	822.83990	-1280.82800	-1012.40729	822.95697	-1271.82922	-980.13776	745.84888	-857.70172	-1082.34167	1364.04285	-780.40344	-1053.72327	1145.22424	-766.55048	-1018.67871	1038.12280	-763.32477	-979.80029	906.88513	-799.22131	-938.03223	816.36432	-752.05688	-962.87769	808.60498	-762.00342	-929.54205	742.20166	-1127.46533	-1038.20886	935.55017	-891.07819	-1036.98682	938.66504	-1081.84058	-1200.32300	959.47327	-931.98975	-1196.69165	974.90320	-1177.01965	-1031.66370	638.18726	-1151.25879	-982.95752	464.77725	-1154.95020	-1096.78699	304.52713	-1119.56555	-1203.01111	123.05455	-1083.13940	-1256.61353	104.16336	-1091.88806	-1084.73230	40.15624	-855.26819	-1099.28259	646.02783	-892.65363	-1091.72852	465.74847	-889.55042	-1146.78076	282.07306	-937.33679	-1192.87329	69.88860	-984.73920	-1240.67969	39.44371	-955.35693	-1053.16626	31.51563																								 
7	0.060	-1071.47717	-992.55048	1621.34961	-939.55103	-1011.82257	1626.09363	-1084.32410	-1116.39661	1569.17700	-953.84784	-1131.34778	1573.69922	-1020.77161	-1150.48120	1416.76111	-1013.93994	-1193.44470	1106.08398	-1015.43451	-1030.26453	1337.09021	-1017.75012	-991.46313	1170.79529	-919.80414	-1207.80652	1246.27966	-1172.84009	-1069.14563	1373.73682	-1249.09839	-1077.43701	1178.67627	-1265.18701	-1066.03003	1057.41553	-1262.77759	-1022.70721	934.83191	-1230.68982	-985.55493	822.67896	-1280.59692	-1009.49823	822.57428	-1271.44666	-977.14880	745.46979	-857.56165	-1075.34534	1364.02844	-780.03271	-1045.67395	1145.49133	-766.18256	-1009.76355	1038.68384	-763.34808	-969.23077	907.93750	-799.37653	-926.34393	818.15607	-752.37854	-951.29114	809.78204	-762.42877	-917.03241	743.96985	-1126.99658	-1032.17053	936.01349	-890.70703	-1031.10974	938.11414	-1081.54468	-1194.45276	959.61493	-931.68195	-1190.75964	974.59882	-1176.69312	-1022.77893	639.22766	-1149.75391	-972.47162	466.49460	-1153.55164	-1081.25403	302.48114	-1118.18250	-1180.87573	117.20570	-1081.55835	-1233.27185	95.96857	-1090.89966	-1058.90723	39.15516	-855.60883	-1094.67542	645.33484	-892.84314	-1088.70740	465.20786	-889.69873	-1144.95178	281.90454	-937.42963	-1192.58862	70.08089	-984.64752	-1240.72644	39.78688	-955.43311	-1053.13416	31.49957																								 
8	0.070	-1071.44165	-986.03760	1621.00952	-939.56024	-1004.84552	1625.68115	-1084.18762	-1110.02661	1569.19568	-953.63788	-1124.55310	1573.72681	-1020.33252	-1144.23108	1416.61255	-1013.26367	-1187.42517	1106.00879	-1015.60101	-1024.08264	1336.88989	-1017.83148	-985.30798	1170.64099	-918.90405	-1201.20166	1246.30261	-1172.81128	-1063.90173	1373.48511	-1248.91687	-1073.25317	1178.35205	-1264.75488	-1062.53345	1056.86621	-1262.60425	-1019.53851	934.37286	-1230.52283	-981.98114	822.46722	-1280.17163	-1006.57001	822.07617	-1270.72864	-974.17670	744.89972	-857.46259	-1068.38159	1363.98279	-779.80609	-1037.61658	1145.70911	-765.83362	-1001.00726	1039.17480	-763.35999	-959.05212	908.93250	-799.80585	-914.80280	819.88281	-752.88324	-939.85718	810.94165	-763.11853	-904.65735	745.76532	-1126.74585	-1026.10596	936.41644	-890.41400	-1025.22900	937.50299	-1081.35974	-1188.47729	959.72839	-931.40234	-1184.80872	974.23218	-1176.58862	-1014.07129	640.31335	-1148.78943	-961.84576	468.63544	-1152.23987	-1065.87378	300.43442	-1116.87708	-1157.99146	111.07104	-1080.32312	-1209.34082	87.66413	-1090.01575	-1033.04077	38.31862	-855.64844	-1090.50989	644.82806	-893.05933	-1085.77014	464.66049	-889.88275	-1143.24194	281.76553	-937.54523	-1192.34192	70.16761	-984.49524	-1240.31628	39.73414	-955.47742	-1053.16382	31.51410																								 
